<svg width="138" height="48" viewBox="0 0 138 48" fill="none" xmlns="http://www.w3.org/2000/svg">
<g clip-path="url(#clip0)">
<path d="M40.6025 0.120798L5.28705 6.41153C2.38212 6.92914 0.00488281 9.75531 0.00488281 13.1612V34.4213C0.00488281 37.91 2.37863 40.6741 5.28008 41.2193L40.6182 47.8723C44.9216 48.6833 48.4431 45.5137 48.4431 40.9708V7.34495C48.4378 2.31893 44.9112 -0.64872 40.6025 0.120798Z" fill="#00E78E"/>
<path d="M53.9344 24.4986C53.9344 27.0021 55.1831 28.6395 57.2259 28.6395C58.5896 28.6395 59.6397 28.0753 60.4914 26.5018L63.5583 27.9925C62.3653 30.6651 59.9811 31.9022 57.1423 31.9022C53.081 31.9022 50.1865 28.8345 50.1865 24.5055C50.1865 20.1765 53.081 17.1088 57.1423 17.1088C59.9811 17.1088 62.367 18.3459 63.5583 21.0185L60.4949 22.5023C59.6432 20.9254 58.5931 20.3646 57.2294 20.3646C55.1831 20.3646 53.9344 21.9951 53.9344 24.4986Z" fill="black"/>
<path d="M79.2776 24.4986C79.2776 28.8017 76.2682 31.8953 71.8951 31.8953C67.522 31.8953 64.5439 28.8017 64.5439 24.4986C64.5439 20.2231 67.5255 17.1019 71.8951 17.1019C76.2647 17.1019 79.2776 20.2231 79.2776 24.4986ZM75.5297 24.4986C75.5297 22.052 74.1678 20.3577 71.8951 20.3577C69.6537 20.3577 68.2918 22.0451 68.2918 24.4986C68.2918 26.9745 69.6537 28.6395 71.8951 28.6395C74.1678 28.6326 75.5297 26.9745 75.5297 24.4986Z" fill="black"/>
<path d="M39.9449 31.8954C37.6809 31.8954 35.8853 30.8826 34.5234 28.8276L36.8223 26.9746C38.1581 28.5274 39.0376 28.9415 40.3716 28.9415C41.3365 28.9415 42.0453 28.436 42.0453 27.6768C42.0453 26.7192 41.1379 26.2965 38.6684 25.7651C36.3399 25.2578 34.9223 23.9914 34.9223 21.4327C34.9223 19.0413 36.9355 17.0468 40.2584 17.0468C42.5869 17.0468 44.2902 18.17 45.2271 19.4623L42.9631 21.4862C42.623 21.0472 42.1836 20.6935 41.6802 20.4537C41.1768 20.214 40.6235 20.0948 40.0651 20.1059C38.9313 20.1059 38.1912 20.5872 38.1912 21.4292C38.1912 22.1608 38.6457 22.6094 40.6294 23.0597C43.5796 23.7361 45.3699 24.8593 45.3699 27.4749C45.3664 30.1803 43.0101 31.8954 39.9449 31.8954Z" fill="black"/>
<path d="M33.8193 23.9344C33.8193 19.9971 31.3498 17.1019 27.0063 17.1019C22.7743 17.1019 19.9355 20.054 19.9355 24.4986C19.9355 28.8017 23.0878 31.8953 27.2884 31.8953C30.3257 31.8953 32.1997 30.6582 33.6765 28.1254L30.7159 26.607C29.8085 28.0995 28.4727 28.6896 27.2797 28.6896C25.2926 28.7172 24.0439 27.5922 23.7322 25.7564H33.6591C33.7661 25.1549 33.8197 24.5452 33.8193 23.9344ZM23.8245 22.8992C24.138 21.072 25.1899 19.9661 26.9767 19.9661C28.8228 19.9661 29.9374 21.0634 30.0715 22.8992H23.8245Z" fill="black"/>
<path d="M14.4059 11.8412V18.5909C13.3921 17.6258 12.0378 17.0915 10.6319 17.1019C6.77085 17.1019 3.95996 20.2231 3.95996 24.4986C3.95996 28.8017 6.77085 31.8953 10.6319 31.8953C12.3352 31.8953 13.7528 31.1085 14.8117 29.9249L15.0955 31.5295H18.1032V11.8412H14.4059ZM11.0568 28.6326C9.04185 28.6326 7.70781 27.0021 7.70781 24.4917C7.70781 21.9813 9.04185 20.3508 11.0568 20.3508C13.2425 20.3508 14.4059 21.9813 14.4059 24.4917C14.4059 27.0021 13.2425 28.6326 11.0568 28.6326Z" fill="black"/>
<path d="M83.0246 21.1048H80.5498V17.9163H83.0246V16.7206C83.0246 13.5615 84.9246 11.5117 88.0629 11.5117C88.8693 11.5117 89.646 11.6549 89.963 11.7964V15.0125C89.5815 14.8916 89.1826 14.8333 88.7822 14.84C87.3141 14.84 86.7672 15.751 86.7672 17.573V17.918H89.9281V21.1065H86.7672V31.897H83.0246V21.1048Z" fill="black"/>
<path d="M96.2147 32.0368C93.6233 32.0368 92.0977 30.6997 92.0977 27.7096V11.9672H95.849V26.9124C95.849 28.0805 96.2809 28.536 97.2597 28.536V31.9868C96.9125 32.0216 96.5637 32.0383 96.2147 32.0368Z" fill="black"/>
<path d="M108.213 31.8953L108.039 30.6427C106.919 31.6953 105.436 32.2857 103.892 32.2939C101.014 32.2939 98.4814 30.2442 98.4814 27.4818C98.4814 24.4642 101.014 22.6422 104.095 22.6422C105.65 22.6422 106.686 23.2115 107.403 23.8672V22.3868C107.403 21.2187 106.453 20.394 104.669 20.394C103.296 20.3951 101.947 20.7482 100.752 21.4189L99.6883 18.6859C101.531 17.7455 103.114 17.29 105.301 17.29C109.189 17.29 111.146 19.4537 111.146 23.0131V31.8953H108.213ZM102.292 27.4818C102.292 28.6206 103.356 29.3608 104.681 29.3608C106.007 29.3608 107.041 28.6206 107.071 27.4818C107.071 26.3431 106.062 25.5753 104.681 25.5753C103.349 25.5753 102.292 26.3431 102.292 27.4818Z" fill="black"/>
<path d="M118.17 17.2331C120.532 17.2331 122.258 18.3718 123.209 19.6814L120.905 21.7312C120.56 21.2868 120.114 20.9291 119.603 20.687C119.093 20.4448 118.532 20.3249 117.967 20.337C116.815 20.337 116.067 20.8202 116.067 21.6742C116.067 22.4144 116.528 22.8699 118.543 23.3254C121.537 24.0156 123.352 25.1474 123.352 27.7959C123.352 30.5289 120.962 32.2646 117.852 32.2646C115.549 32.2646 113.736 31.2397 112.354 29.1589L114.685 27.28C116.039 28.8449 116.93 29.2728 118.284 29.2728C119.262 29.2728 119.982 28.7552 119.982 27.9908C119.982 27.0229 119.062 26.5967 116.556 26.0549C114.196 25.5373 112.758 24.2623 112.758 21.6708C112.759 19.2501 114.802 17.2331 118.17 17.2331Z" fill="black"/>
<path d="M128.875 18.6858C130.122 17.787 131.622 17.2988 133.164 17.29C137.396 17.29 138 20.2232 138 23.1839V31.8953H134.26V23.07C134.26 21.1048 133.683 20.5648 132.272 20.5648C131.092 20.5648 129.796 21.1342 128.875 21.9882V31.8953H125.134V11.9672H128.875V18.6858Z" fill="black"/>
</g>
<defs>
<clipPath id="clip0">
<rect width="138" height="48" fill="white"/>
</clipPath>
</defs>
</svg>
